<mxfile host="Electron" agent="Mozilla/5.0 (Windows NT 10.0; Win64; x64) AppleWebKit/537.36 (KHTML, like Gecko) draw.io/28.1.2 Chrome/138.0.7204.243 Electron/37.4.0 Safari/537.36" version="28.1.2">
  <diagram name="Page-1" id="1jr1iKMsGULJ3ec4QV6W">
    <mxGraphModel dx="1213" dy="828" grid="1" gridSize="10" guides="1" tooltips="1" connect="1" arrows="1" fold="1" page="1" pageScale="1" pageWidth="1169" pageHeight="827" math="0" shadow="0">
      <root>
        <mxCell id="0" />
        <mxCell id="1" parent="0" />
        <mxCell id="hsrx1UMdEIylFyE6pt_0-77" style="edgeStyle=orthogonalEdgeStyle;rounded=0;orthogonalLoop=1;jettySize=auto;html=1;exitX=0.25;exitY=0;exitDx=0;exitDy=0;endArrow=oval;endFill=1;" parent="1" source="hsrx1UMdEIylFyE6pt_0-1" edge="1">
          <mxGeometry relative="1" as="geometry">
            <mxPoint x="944.272727272727" y="210" as="targetPoint" />
          </mxGeometry>
        </mxCell>
        <mxCell id="hsrx1UMdEIylFyE6pt_0-78" style="edgeStyle=orthogonalEdgeStyle;rounded=0;orthogonalLoop=1;jettySize=auto;html=1;exitX=0.75;exitY=0;exitDx=0;exitDy=0;endArrow=oval;endFill=0;" parent="1" source="hsrx1UMdEIylFyE6pt_0-1" edge="1">
          <mxGeometry relative="1" as="geometry">
            <mxPoint x="1004.272727272727" y="210" as="targetPoint" />
          </mxGeometry>
        </mxCell>
        <mxCell id="hsrx1UMdEIylFyE6pt_0-79" style="edgeStyle=orthogonalEdgeStyle;rounded=0;orthogonalLoop=1;jettySize=auto;html=1;exitX=0.5;exitY=1;exitDx=0;exitDy=0;entryX=0.5;entryY=0;entryDx=0;entryDy=0;endArrow=none;endFill=0;" parent="1" source="hsrx1UMdEIylFyE6pt_0-1" target="hsrx1UMdEIylFyE6pt_0-60" edge="1">
          <mxGeometry relative="1" as="geometry" />
        </mxCell>
        <mxCell id="hsrx1UMdEIylFyE6pt_0-1" value="Menu" style="rounded=0;whiteSpace=wrap;html=1;" parent="1" vertex="1">
          <mxGeometry x="914.5" y="248" width="120" height="60" as="geometry" />
        </mxCell>
        <mxCell id="hsrx1UMdEIylFyE6pt_0-62" style="edgeStyle=orthogonalEdgeStyle;rounded=0;orthogonalLoop=1;jettySize=auto;html=1;exitX=1;exitY=0.5;exitDx=0;exitDy=0;entryX=0.5;entryY=1;entryDx=0;entryDy=0;endArrow=none;endFill=0;" parent="1" source="hsrx1UMdEIylFyE6pt_0-5" target="hsrx1UMdEIylFyE6pt_0-60" edge="1">
          <mxGeometry relative="1" as="geometry" />
        </mxCell>
        <mxCell id="hsrx1UMdEIylFyE6pt_0-5" value="Cuisine" style="rounded=0;whiteSpace=wrap;html=1;" parent="1" vertex="1">
          <mxGeometry x="817" y="490" width="120" height="60" as="geometry" />
        </mxCell>
        <mxCell id="hsrx1UMdEIylFyE6pt_0-17" style="edgeStyle=orthogonalEdgeStyle;rounded=0;orthogonalLoop=1;jettySize=auto;html=1;exitX=0.25;exitY=0;exitDx=0;exitDy=0;endArrow=oval;endFill=0;" parent="1" edge="1">
          <mxGeometry relative="1" as="geometry">
            <mxPoint x="538.8571428571429" y="50" as="targetPoint" />
            <mxPoint x="538.9999999999999" y="90" as="sourcePoint" />
          </mxGeometry>
        </mxCell>
        <mxCell id="hsrx1UMdEIylFyE6pt_0-29" style="edgeStyle=orthogonalEdgeStyle;rounded=0;orthogonalLoop=1;jettySize=auto;html=1;exitX=0.25;exitY=0;exitDx=0;exitDy=0;endArrow=oval;endFill=0;" parent="1" source="hsrx1UMdEIylFyE6pt_0-7" edge="1">
          <mxGeometry relative="1" as="geometry">
            <mxPoint x="479.8571428571429" y="50" as="targetPoint" />
          </mxGeometry>
        </mxCell>
        <mxCell id="hsrx1UMdEIylFyE6pt_0-31" style="edgeStyle=orthogonalEdgeStyle;rounded=0;orthogonalLoop=1;jettySize=auto;html=1;exitX=1;exitY=0.25;exitDx=0;exitDy=0;endArrow=oval;endFill=1;" parent="1" source="hsrx1UMdEIylFyE6pt_0-7" edge="1">
          <mxGeometry relative="1" as="geometry">
            <mxPoint x="620" y="105.42857142857156" as="targetPoint" />
          </mxGeometry>
        </mxCell>
        <mxCell id="hsrx1UMdEIylFyE6pt_0-66" style="edgeStyle=orthogonalEdgeStyle;rounded=0;orthogonalLoop=1;jettySize=auto;html=1;exitX=1;exitY=0.5;exitDx=0;exitDy=0;endArrow=oval;endFill=0;" parent="1" edge="1">
          <mxGeometry relative="1" as="geometry">
            <mxPoint x="630" y="129" as="targetPoint" />
            <mxPoint x="570" y="129" as="sourcePoint" />
          </mxGeometry>
        </mxCell>
        <mxCell id="hsrx1UMdEIylFyE6pt_0-7" value="Registration" style="rounded=0;whiteSpace=wrap;html=1;" parent="1" vertex="1">
          <mxGeometry x="450" y="90" width="120" height="60" as="geometry" />
        </mxCell>
        <mxCell id="hsrx1UMdEIylFyE6pt_0-20" style="edgeStyle=orthogonalEdgeStyle;rounded=0;orthogonalLoop=1;jettySize=auto;html=1;exitX=0.25;exitY=0;exitDx=0;exitDy=0;endArrow=oval;endFill=1;" parent="1" source="hsrx1UMdEIylFyE6pt_0-8" edge="1">
          <mxGeometry relative="1" as="geometry">
            <mxPoint x="535.8571428571429" y="450" as="targetPoint" />
          </mxGeometry>
        </mxCell>
        <mxCell id="hsrx1UMdEIylFyE6pt_0-23" style="edgeStyle=orthogonalEdgeStyle;rounded=0;orthogonalLoop=1;jettySize=auto;html=1;exitX=1;exitY=0.5;exitDx=0;exitDy=0;entryX=0;entryY=0.5;entryDx=0;entryDy=0;endArrow=none;endFill=0;" parent="1" source="hsrx1UMdEIylFyE6pt_0-8" target="hsrx1UMdEIylFyE6pt_0-22" edge="1">
          <mxGeometry relative="1" as="geometry" />
        </mxCell>
        <mxCell id="hsrx1UMdEIylFyE6pt_0-84" style="edgeStyle=orthogonalEdgeStyle;rounded=0;orthogonalLoop=1;jettySize=auto;html=1;exitX=0;exitY=0.25;exitDx=0;exitDy=0;endArrow=oval;endFill=0;" parent="1" source="hsrx1UMdEIylFyE6pt_0-8" edge="1">
          <mxGeometry relative="1" as="geometry">
            <mxPoint x="460.0000000000002" y="505.25" as="targetPoint" />
          </mxGeometry>
        </mxCell>
        <mxCell id="hsrx1UMdEIylFyE6pt_0-8" value="Staff" style="rounded=0;whiteSpace=wrap;html=1;" parent="1" vertex="1">
          <mxGeometry x="506" y="490" width="120" height="60" as="geometry" />
        </mxCell>
        <mxCell id="hsrx1UMdEIylFyE6pt_0-39" style="edgeStyle=orthogonalEdgeStyle;rounded=0;orthogonalLoop=1;jettySize=auto;html=1;exitX=0;exitY=0.5;exitDx=0;exitDy=0;endArrow=oval;endFill=0;" parent="1" edge="1">
          <mxGeometry relative="1" as="geometry">
            <mxPoint x="220.0000000000001" y="263.7142857142858" as="targetPoint" />
            <mxPoint x="264" y="263" as="sourcePoint" />
          </mxGeometry>
        </mxCell>
        <mxCell id="hsrx1UMdEIylFyE6pt_0-41" style="edgeStyle=orthogonalEdgeStyle;rounded=0;orthogonalLoop=1;jettySize=auto;html=1;exitX=0.25;exitY=1;exitDx=0;exitDy=0;endArrow=oval;endFill=0;" parent="1" source="hsrx1UMdEIylFyE6pt_0-9" edge="1">
          <mxGeometry relative="1" as="geometry">
            <mxPoint x="294.1428571428572" y="350" as="targetPoint" />
          </mxGeometry>
        </mxCell>
        <mxCell id="hsrx1UMdEIylFyE6pt_0-43" style="edgeStyle=orthogonalEdgeStyle;rounded=0;orthogonalLoop=1;jettySize=auto;html=1;exitX=0.5;exitY=1;exitDx=0;exitDy=0;endArrow=oval;endFill=0;" parent="1" source="hsrx1UMdEIylFyE6pt_0-9" edge="1">
          <mxGeometry relative="1" as="geometry">
            <mxPoint x="329.9999999999999" y="340" as="targetPoint" />
          </mxGeometry>
        </mxCell>
        <mxCell id="hsrx1UMdEIylFyE6pt_0-44" value="card_num" style="edgeLabel;html=1;align=center;verticalAlign=middle;resizable=0;points=[];" parent="hsrx1UMdEIylFyE6pt_0-43" vertex="1" connectable="0">
          <mxGeometry x="1" y="15" relative="1" as="geometry">
            <mxPoint x="-4" y="11" as="offset" />
          </mxGeometry>
        </mxCell>
        <mxCell id="hsrx1UMdEIylFyE6pt_0-47" style="edgeStyle=orthogonalEdgeStyle;rounded=0;orthogonalLoop=1;jettySize=auto;html=1;exitX=0.75;exitY=1;exitDx=0;exitDy=0;endArrow=oval;endFill=0;" parent="1" source="hsrx1UMdEIylFyE6pt_0-9" edge="1">
          <mxGeometry relative="1" as="geometry">
            <mxPoint x="370" y="370" as="targetPoint" />
          </mxGeometry>
        </mxCell>
        <mxCell id="hsrx1UMdEIylFyE6pt_0-48" value="date" style="edgeLabel;html=1;align=center;verticalAlign=middle;resizable=0;points=[];" parent="hsrx1UMdEIylFyE6pt_0-47" vertex="1" connectable="0">
          <mxGeometry x="1" y="-10" relative="1" as="geometry">
            <mxPoint x="4" y="12" as="offset" />
          </mxGeometry>
        </mxCell>
        <mxCell id="hsrx1UMdEIylFyE6pt_0-49" style="edgeStyle=orthogonalEdgeStyle;rounded=0;orthogonalLoop=1;jettySize=auto;html=1;exitX=1;exitY=1;exitDx=0;exitDy=0;endArrow=oval;endFill=0;" parent="1" source="hsrx1UMdEIylFyE6pt_0-9" edge="1">
          <mxGeometry relative="1" as="geometry">
            <mxPoint x="400" y="340" as="targetPoint" />
          </mxGeometry>
        </mxCell>
        <mxCell id="hsrx1UMdEIylFyE6pt_0-69" style="edgeStyle=orthogonalEdgeStyle;rounded=0;orthogonalLoop=1;jettySize=auto;html=1;exitX=0;exitY=1;exitDx=0;exitDy=0;endArrow=oval;endFill=1;" parent="1" source="hsrx1UMdEIylFyE6pt_0-9" edge="1">
          <mxGeometry relative="1" as="geometry">
            <mxPoint x="230" y="350" as="targetPoint" />
          </mxGeometry>
        </mxCell>
        <mxCell id="hsrx1UMdEIylFyE6pt_0-75" style="edgeStyle=orthogonalEdgeStyle;rounded=0;orthogonalLoop=1;jettySize=auto;html=1;exitX=1;exitY=0.5;exitDx=0;exitDy=0;entryX=0;entryY=0.5;entryDx=0;entryDy=0;endArrow=none;endFill=0;" parent="1" source="hsrx1UMdEIylFyE6pt_0-9" target="hsrx1UMdEIylFyE6pt_0-51" edge="1">
          <mxGeometry relative="1" as="geometry" />
        </mxCell>
        <mxCell id="hsrx1UMdEIylFyE6pt_0-9" value="Order" style="rounded=0;whiteSpace=wrap;html=1;" parent="1" vertex="1">
          <mxGeometry x="264" y="249" width="120" height="60" as="geometry" />
        </mxCell>
        <mxCell id="hsrx1UMdEIylFyE6pt_0-11" value="item" style="text;html=1;align=center;verticalAlign=middle;resizable=0;points=[];autosize=1;strokeColor=none;fillColor=none;" parent="1" vertex="1">
          <mxGeometry x="914.5" y="178" width="50" height="30" as="geometry" />
        </mxCell>
        <mxCell id="hsrx1UMdEIylFyE6pt_0-13" style="edgeStyle=orthogonalEdgeStyle;rounded=0;orthogonalLoop=1;jettySize=auto;html=1;exitX=0.25;exitY=1;exitDx=0;exitDy=0;endArrow=oval;endFill=1;" parent="1" edge="1">
          <mxGeometry relative="1" as="geometry">
            <mxPoint x="842" y="600.0000000000002" as="targetPoint" />
            <mxPoint x="842.1428571428571" y="550" as="sourcePoint" />
          </mxGeometry>
        </mxCell>
        <mxCell id="hsrx1UMdEIylFyE6pt_0-14" value="name" style="text;html=1;align=center;verticalAlign=middle;resizable=0;points=[];autosize=1;strokeColor=none;fillColor=none;" parent="1" vertex="1">
          <mxGeometry x="826" y="610" width="50" height="30" as="geometry" />
        </mxCell>
        <mxCell id="hsrx1UMdEIylFyE6pt_0-16" value="price" style="text;html=1;align=center;verticalAlign=middle;resizable=0;points=[];autosize=1;strokeColor=none;fillColor=none;" parent="1" vertex="1">
          <mxGeometry x="980" y="178" width="50" height="30" as="geometry" />
        </mxCell>
        <mxCell id="hsrx1UMdEIylFyE6pt_0-18" value="last_name" style="text;html=1;align=center;verticalAlign=middle;resizable=0;points=[];autosize=1;strokeColor=none;fillColor=none;" parent="1" vertex="1">
          <mxGeometry x="501" y="15" width="80" height="30" as="geometry" />
        </mxCell>
        <mxCell id="hsrx1UMdEIylFyE6pt_0-21" value="id" style="text;html=1;align=center;verticalAlign=middle;resizable=0;points=[];autosize=1;strokeColor=none;fillColor=none;" parent="1" vertex="1">
          <mxGeometry x="526" y="420" width="30" height="30" as="geometry" />
        </mxCell>
        <mxCell id="hsrx1UMdEIylFyE6pt_0-24" style="edgeStyle=orthogonalEdgeStyle;rounded=0;orthogonalLoop=1;jettySize=auto;html=1;exitX=1;exitY=0.5;exitDx=0;exitDy=0;endArrow=none;endFill=0;" parent="1" source="hsrx1UMdEIylFyE6pt_0-22" edge="1">
          <mxGeometry relative="1" as="geometry">
            <mxPoint x="816" y="521.1428571428571" as="targetPoint" />
          </mxGeometry>
        </mxCell>
        <mxCell id="hsrx1UMdEIylFyE6pt_0-22" value="assigned" style="rhombus;whiteSpace=wrap;html=1;" parent="1" vertex="1">
          <mxGeometry x="670" y="489" width="108.5" height="63" as="geometry" />
        </mxCell>
        <mxCell id="hsrx1UMdEIylFyE6pt_0-25" value="(1,n)" style="text;html=1;align=center;verticalAlign=middle;resizable=0;points=[];autosize=1;strokeColor=none;fillColor=none;" parent="1" vertex="1">
          <mxGeometry x="620" y="490" width="50" height="30" as="geometry" />
        </mxCell>
        <mxCell id="hsrx1UMdEIylFyE6pt_0-26" value="(0,n)" style="text;html=1;align=center;verticalAlign=middle;resizable=0;points=[];autosize=1;strokeColor=none;fillColor=none;" parent="1" vertex="1">
          <mxGeometry x="770" y="491" width="50" height="30" as="geometry" />
        </mxCell>
        <mxCell id="hsrx1UMdEIylFyE6pt_0-34" style="edgeStyle=orthogonalEdgeStyle;rounded=0;orthogonalLoop=1;jettySize=auto;html=1;exitX=1;exitY=0.5;exitDx=0;exitDy=0;entryX=0;entryY=0.5;entryDx=0;entryDy=0;endArrow=none;endFill=0;" parent="1" source="hsrx1UMdEIylFyE6pt_0-27" target="hsrx1UMdEIylFyE6pt_0-7" edge="1">
          <mxGeometry relative="1" as="geometry" />
        </mxCell>
        <mxCell id="hsrx1UMdEIylFyE6pt_0-35" style="edgeStyle=orthogonalEdgeStyle;rounded=0;orthogonalLoop=1;jettySize=auto;html=1;exitX=0.5;exitY=1;exitDx=0;exitDy=0;endArrow=none;endFill=0;" parent="1" source="hsrx1UMdEIylFyE6pt_0-27" target="hsrx1UMdEIylFyE6pt_0-9" edge="1">
          <mxGeometry relative="1" as="geometry" />
        </mxCell>
        <mxCell id="hsrx1UMdEIylFyE6pt_0-27" value="ordered_by" style="rhombus;whiteSpace=wrap;html=1;" parent="1" vertex="1">
          <mxGeometry x="270" y="130" width="108.5" height="63" as="geometry" />
        </mxCell>
        <mxCell id="hsrx1UMdEIylFyE6pt_0-30" value="first_name" style="text;html=1;align=center;verticalAlign=middle;resizable=0;points=[];autosize=1;strokeColor=none;fillColor=none;" parent="1" vertex="1">
          <mxGeometry x="426" y="15" width="80" height="30" as="geometry" />
        </mxCell>
        <mxCell id="hsrx1UMdEIylFyE6pt_0-32" value="phone" style="text;html=1;align=center;verticalAlign=middle;resizable=0;points=[];autosize=1;strokeColor=none;fillColor=none;" parent="1" vertex="1">
          <mxGeometry x="618" y="88" width="60" height="30" as="geometry" />
        </mxCell>
        <mxCell id="hsrx1UMdEIylFyE6pt_0-37" value="(0,1)" style="text;html=1;align=center;verticalAlign=middle;resizable=0;points=[];autosize=1;strokeColor=none;fillColor=none;" parent="1" vertex="1">
          <mxGeometry x="315" y="218" width="50" height="30" as="geometry" />
        </mxCell>
        <mxCell id="hsrx1UMdEIylFyE6pt_0-38" value="(0,n)" style="text;html=1;align=center;verticalAlign=middle;resizable=0;points=[];autosize=1;strokeColor=none;fillColor=none;" parent="1" vertex="1">
          <mxGeometry x="395" y="88" width="50" height="30" as="geometry" />
        </mxCell>
        <mxCell id="hsrx1UMdEIylFyE6pt_0-40" value="payment_type" style="text;html=1;align=center;verticalAlign=middle;resizable=0;points=[];autosize=1;strokeColor=none;fillColor=none;" parent="1" vertex="1">
          <mxGeometry x="123" y="246.5" width="100" height="30" as="geometry" />
        </mxCell>
        <mxCell id="hsrx1UMdEIylFyE6pt_0-42" value="total_price" style="text;html=1;align=center;verticalAlign=middle;resizable=0;points=[];autosize=1;strokeColor=none;fillColor=none;" parent="1" vertex="1">
          <mxGeometry x="255" y="358" width="80" height="30" as="geometry" />
        </mxCell>
        <mxCell id="hsrx1UMdEIylFyE6pt_0-45" style="edgeStyle=orthogonalEdgeStyle;rounded=0;orthogonalLoop=1;jettySize=auto;html=1;exitX=0;exitY=0.5;exitDx=0;exitDy=0;endArrow=oval;endFill=0;" parent="1" edge="1">
          <mxGeometry relative="1" as="geometry">
            <mxPoint x="221" y="293.7142857142858" as="targetPoint" />
            <mxPoint x="264.9999999999999" y="293" as="sourcePoint" />
          </mxGeometry>
        </mxCell>
        <mxCell id="hsrx1UMdEIylFyE6pt_0-46" value="card_type" style="text;html=1;align=center;verticalAlign=middle;resizable=0;points=[];autosize=1;strokeColor=none;fillColor=none;" parent="1" vertex="1">
          <mxGeometry x="145" y="278" width="80" height="30" as="geometry" />
        </mxCell>
        <mxCell id="hsrx1UMdEIylFyE6pt_0-50" value="time" style="text;html=1;align=center;verticalAlign=middle;resizable=0;points=[];autosize=1;strokeColor=none;fillColor=none;" parent="1" vertex="1">
          <mxGeometry x="386" y="340" width="50" height="30" as="geometry" />
        </mxCell>
        <mxCell id="hsrx1UMdEIylFyE6pt_0-73" style="edgeStyle=orthogonalEdgeStyle;rounded=0;orthogonalLoop=1;jettySize=auto;html=1;exitX=0.5;exitY=0;exitDx=0;exitDy=0;endArrow=oval;endFill=0;" parent="1" source="hsrx1UMdEIylFyE6pt_0-51" edge="1">
          <mxGeometry relative="1" as="geometry">
            <mxPoint x="624" y="210" as="targetPoint" />
            <mxPoint x="612.5" y="246.5" as="sourcePoint" />
          </mxGeometry>
        </mxCell>
        <mxCell id="hsrx1UMdEIylFyE6pt_0-60" value="belongs_to" style="rhombus;whiteSpace=wrap;html=1;" parent="1" vertex="1">
          <mxGeometry x="980" y="428" width="108.5" height="63" as="geometry" />
        </mxCell>
        <mxCell id="hsrx1UMdEIylFyE6pt_0-67" value="reg_date" style="text;html=1;align=center;verticalAlign=middle;resizable=0;points=[];autosize=1;strokeColor=none;fillColor=none;" parent="1" vertex="1">
          <mxGeometry x="626" y="114" width="70" height="30" as="geometry" />
        </mxCell>
        <mxCell id="hsrx1UMdEIylFyE6pt_0-70" value="id" style="text;html=1;align=center;verticalAlign=middle;resizable=0;points=[];autosize=1;strokeColor=none;fillColor=none;" parent="1" vertex="1">
          <mxGeometry x="211" y="348" width="30" height="30" as="geometry" />
        </mxCell>
        <mxCell id="hsrx1UMdEIylFyE6pt_0-71" value="(1,1)" style="text;html=1;align=center;verticalAlign=middle;resizable=0;points=[];autosize=1;strokeColor=none;fillColor=none;" parent="1" vertex="1">
          <mxGeometry x="964.5" y="309" width="50" height="30" as="geometry" />
        </mxCell>
        <mxCell id="hsrx1UMdEIylFyE6pt_0-72" value="(0,n)" style="text;html=1;align=center;verticalAlign=middle;resizable=0;points=[];autosize=1;strokeColor=none;fillColor=none;" parent="1" vertex="1">
          <mxGeometry x="937" y="522" width="50" height="30" as="geometry" />
        </mxCell>
        <mxCell id="hsrx1UMdEIylFyE6pt_0-74" value="quantity" style="text;html=1;align=center;verticalAlign=middle;resizable=0;points=[];autosize=1;strokeColor=none;fillColor=none;" parent="1" vertex="1">
          <mxGeometry x="595" y="178" width="70" height="30" as="geometry" />
        </mxCell>
        <mxCell id="hsrx1UMdEIylFyE6pt_0-76" style="edgeStyle=orthogonalEdgeStyle;rounded=0;orthogonalLoop=1;jettySize=auto;html=1;exitX=1;exitY=0.5;exitDx=0;exitDy=0;entryX=0;entryY=0.5;entryDx=0;entryDy=0;endArrow=none;endFill=0;" parent="1" target="hsrx1UMdEIylFyE6pt_0-1" edge="1">
          <mxGeometry relative="1" as="geometry">
            <mxPoint x="710" y="278.25" as="sourcePoint" />
          </mxGeometry>
        </mxCell>
        <mxCell id="N_w7ST55aJBTDYb4RTNT-1" style="edgeStyle=orthogonalEdgeStyle;rounded=0;orthogonalLoop=1;jettySize=auto;html=1;exitX=0.5;exitY=1;exitDx=0;exitDy=0;entryX=0.5;entryY=0;entryDx=0;entryDy=0;endArrow=none;endFill=0;" parent="1" source="hsrx1UMdEIylFyE6pt_0-51" target="hsrx1UMdEIylFyE6pt_0-8" edge="1">
          <mxGeometry relative="1" as="geometry" />
        </mxCell>
        <mxCell id="hsrx1UMdEIylFyE6pt_0-51" value="OrderItem" style="rhombus;whiteSpace=wrap;html=1;" parent="1" vertex="1">
          <mxGeometry x="580" y="246.5" width="130" height="63.5" as="geometry" />
        </mxCell>
        <mxCell id="hsrx1UMdEIylFyE6pt_0-80" value="(1,1)" style="text;html=1;align=center;verticalAlign=middle;resizable=0;points=[];autosize=1;strokeColor=none;fillColor=none;" parent="1" vertex="1">
          <mxGeometry x="640" y="300" width="50" height="30" as="geometry" />
        </mxCell>
        <mxCell id="hsrx1UMdEIylFyE6pt_0-81" value="(1,n)" style="text;html=1;align=center;verticalAlign=middle;resizable=0;points=[];autosize=1;strokeColor=none;fillColor=none;" parent="1" vertex="1">
          <mxGeometry x="560" y="461" width="50" height="30" as="geometry" />
        </mxCell>
        <mxCell id="hsrx1UMdEIylFyE6pt_0-82" value="(1,n)" style="text;html=1;align=center;verticalAlign=middle;resizable=0;points=[];autosize=1;strokeColor=none;fillColor=none;" parent="1" vertex="1">
          <mxGeometry x="375" y="248" width="50" height="30" as="geometry" />
        </mxCell>
        <mxCell id="hsrx1UMdEIylFyE6pt_0-83" value="(0,n)" style="text;html=1;align=center;verticalAlign=middle;resizable=0;points=[];autosize=1;strokeColor=none;fillColor=none;" parent="1" vertex="1">
          <mxGeometry x="855" y="248" width="50" height="30" as="geometry" />
        </mxCell>
        <mxCell id="hsrx1UMdEIylFyE6pt_0-85" value="name" style="text;html=1;align=center;verticalAlign=middle;resizable=0;points=[];autosize=1;strokeColor=none;fillColor=none;" parent="1" vertex="1">
          <mxGeometry x="410" y="490" width="50" height="30" as="geometry" />
        </mxCell>
        <mxCell id="YlNCUqa3vCgMtaLBfOvI-4" style="edgeStyle=orthogonalEdgeStyle;rounded=0;orthogonalLoop=1;jettySize=auto;html=1;exitX=1;exitY=0.5;exitDx=0;exitDy=0;endArrow=oval;endFill=0;" edge="1" parent="1">
          <mxGeometry relative="1" as="geometry">
            <mxPoint x="630" y="147" as="targetPoint" />
            <mxPoint x="570" y="147" as="sourcePoint" />
          </mxGeometry>
        </mxCell>
        <mxCell id="YlNCUqa3vCgMtaLBfOvI-5" value="reg_time" style="text;html=1;align=center;verticalAlign=middle;resizable=0;points=[];autosize=1;strokeColor=none;fillColor=none;" vertex="1" parent="1">
          <mxGeometry x="626" y="133" width="70" height="30" as="geometry" />
        </mxCell>
      </root>
    </mxGraphModel>
  </diagram>
</mxfile>
